<svg xmlns="http://www.w3.org/2000/svg" xmlns:xlink="http://www.w3.org/1999/xlink" width="50" zoomAndPan="magnify" viewBox="0 0 37.5 37.499999" height="50" preserveAspectRatio="xMidYMid meet" version="1.0"><defs><clipPath id="df1287a73a"><path d="M 11 7.523438 L 37.007812 7.523438 L 37.007812 24 L 11 24 Z M 11 7.523438 " clip-rule="nonzero"/></clipPath><clipPath id="51f00b01cf"><path d="M 15 24 L 22 24 L 22 30.023438 L 15 30.023438 Z M 15 24 " clip-rule="nonzero"/></clipPath><clipPath id="7753c6db99"><path d="M 23 24 L 30 24 L 30 30.023438 L 23 30.023438 Z M 23 24 " clip-rule="nonzero"/></clipPath></defs><g clip-path="url(#df1287a73a)"><path fill="#756e97" d="M 37.5 11.921875 L 34.90625 22.710938 C 34.90625 22.925781 34.828125 23.113281 34.675781 23.265625 C 34.527344 23.417969 34.339844 23.492188 34.125 23.492188 L 16.65625 23.621094 C 16.441406 23.621094 16.257812 23.542969 16.105469 23.390625 C 15.953125 23.238281 15.875 23.054688 15.875 22.839844 L 15.875 11.917969 C 15.875 11.898438 15.875 11.875 15.878906 11.855469 L 15.640625 9.742188 L 13.058594 9.742188 C 12.914062 9.734375 12.78125 9.703125 12.648438 9.644531 C 12.519531 9.585938 12.402344 9.503906 12.304688 9.402344 C 12.207031 9.296875 12.128906 9.179688 12.078125 9.046875 C 12.023438 8.914062 11.996094 8.777344 11.996094 8.632812 C 11.996094 8.488281 12.023438 8.351562 12.078125 8.21875 C 12.128906 8.085938 12.207031 7.96875 12.304688 7.863281 C 12.402344 7.761719 12.519531 7.679688 12.648438 7.621094 C 12.78125 7.5625 12.914062 7.53125 13.058594 7.523438 L 17.617188 7.523438 C 17.617188 7.527344 17.617188 7.53125 17.617188 7.535156 L 17.863281 9.742188 L 18.019531 11.136719 L 36.71875 11.136719 C 36.933594 11.136719 37.117188 11.214844 37.269531 11.367188 C 37.421875 11.519531 37.5 11.703125 37.5 11.921875 Z M 37.5 11.921875 " fill-opacity="1" fill-rule="nonzero"/></g><g clip-path="url(#51f00b01cf)"><path fill="#946fa3" d="M 21.3125 27.167969 C 21.3125 27.546875 21.238281 27.910156 21.09375 28.261719 C 20.949219 28.609375 20.746094 28.917969 20.476562 29.1875 C 20.210938 29.453125 19.902344 29.660156 19.554688 29.804688 C 19.207031 29.949219 18.84375 30.019531 18.464844 30.019531 C 18.089844 30.019531 17.726562 29.949219 17.375 29.804688 C 17.027344 29.660156 16.71875 29.453125 16.453125 29.1875 C 16.1875 28.917969 15.980469 28.609375 15.835938 28.261719 C 15.691406 27.910156 15.621094 27.546875 15.621094 27.167969 C 15.621094 26.792969 15.691406 26.429688 15.835938 26.078125 C 15.980469 25.730469 16.1875 25.421875 16.453125 25.152344 C 16.71875 24.886719 17.027344 24.679688 17.375 24.535156 C 17.726562 24.390625 18.089844 24.316406 18.464844 24.316406 C 18.84375 24.316406 19.207031 24.390625 19.554688 24.535156 C 19.902344 24.679688 20.210938 24.886719 20.476562 25.152344 C 20.746094 25.421875 20.949219 25.730469 21.09375 26.078125 C 21.238281 26.429688 21.3125 26.792969 21.3125 27.167969 Z M 21.3125 27.167969 " fill-opacity="1" fill-rule="nonzero"/></g><g clip-path="url(#7753c6db99)"><path fill="#946fa3" d="M 29.34375 27.167969 C 29.34375 27.546875 29.269531 27.910156 29.125 28.261719 C 28.980469 28.609375 28.777344 28.917969 28.507812 29.1875 C 28.242188 29.453125 27.933594 29.660156 27.585938 29.804688 C 27.238281 29.949219 26.875 30.019531 26.496094 30.019531 C 26.121094 30.019531 25.757812 29.949219 25.40625 29.804688 C 25.058594 29.660156 24.75 29.453125 24.484375 29.1875 C 24.21875 28.917969 24.011719 28.609375 23.867188 28.261719 C 23.722656 27.910156 23.652344 27.546875 23.652344 27.167969 C 23.652344 26.792969 23.722656 26.429688 23.867188 26.078125 C 24.011719 25.730469 24.21875 25.421875 24.484375 25.152344 C 24.75 24.886719 25.058594 24.679688 25.40625 24.535156 C 25.757812 24.390625 26.121094 24.316406 26.496094 24.316406 C 26.875 24.316406 27.238281 24.390625 27.585938 24.535156 C 27.933594 24.679688 28.242188 24.886719 28.507812 25.152344 C 28.777344 25.421875 28.980469 25.730469 29.125 26.078125 C 29.269531 26.429688 29.34375 26.792969 29.34375 27.167969 Z M 29.34375 27.167969 " fill-opacity="1" fill-rule="nonzero"/></g><path fill="#756e97" d="M 7.460938 12.085938 L 13.976562 12.085938 C 14.183594 12.085938 14.363281 12.160156 14.511719 12.308594 C 14.660156 12.457031 14.734375 12.636719 14.734375 12.847656 L 14.734375 13.039062 C 14.734375 13.246094 14.660156 13.425781 14.511719 13.574219 C 14.363281 13.722656 14.183594 13.796875 13.976562 13.796875 L 7.460938 13.796875 C 7.253906 13.796875 7.074219 13.722656 6.925781 13.574219 C 6.777344 13.425781 6.703125 13.246094 6.703125 13.039062 L 6.703125 12.847656 C 6.703125 12.636719 6.777344 12.457031 6.925781 12.308594 C 7.074219 12.160156 7.253906 12.085938 7.460938 12.085938 Z M 7.460938 12.085938 " fill-opacity="1" fill-rule="nonzero"/><path fill="#756e97" d="M 7.460938 22.734375 L 13.976562 22.734375 C 14.183594 22.734375 14.363281 22.808594 14.511719 22.957031 C 14.660156 23.105469 14.734375 23.285156 14.734375 23.492188 L 14.734375 23.683594 C 14.734375 23.894531 14.660156 24.074219 14.511719 24.222656 C 14.363281 24.371094 14.183594 24.445312 13.976562 24.445312 L 7.460938 24.445312 C 7.253906 24.445312 7.074219 24.371094 6.925781 24.222656 C 6.777344 24.074219 6.703125 23.894531 6.703125 23.683594 L 6.703125 23.492188 C 6.703125 23.285156 6.777344 23.105469 6.925781 22.957031 C 7.074219 22.808594 7.253906 22.734375 7.460938 22.734375 Z M 7.460938 22.734375 " fill-opacity="1" fill-rule="nonzero"/><path fill="#756e97" d="M 0.855469 17.285156 L 13.878906 17.285156 C 14.117188 17.285156 14.316406 17.367188 14.484375 17.535156 C 14.652344 17.703125 14.734375 17.902344 14.734375 18.140625 C 14.734375 18.375 14.652344 18.578125 14.484375 18.746094 C 14.316406 18.910156 14.117188 18.996094 13.878906 18.996094 L 0.855469 18.996094 C 0.617188 18.996094 0.417969 18.910156 0.25 18.746094 C 0.0820312 18.578125 0 18.375 0 18.140625 C 0 17.902344 0.0820312 17.703125 0.25 17.535156 C 0.417969 17.367188 0.617188 17.285156 0.855469 17.285156 Z M 0.855469 17.285156 " fill-opacity="1" fill-rule="nonzero"/></svg>